<svg xmlns="http://www.w3.org/2000/svg" viewBox="0 0 1200 720" role="img" aria-label="Conspiracy Pictionary game preview">
  <defs>
    <linearGradient id="bg" x1="0" y1="0" x2="1" y2="1">
      <stop offset="0" stop-color="#050607"/>
      <stop offset="0.48" stop-color="#111417"/>
      <stop offset="1" stop-color="#061d24"/>
    </linearGradient>
    <linearGradient id="accent" x1="0" y1="0" x2="1" y2="1">
      <stop offset="0" stop-color="#e5242a"/>
      <stop offset="1" stop-color="#00d5ff"/>
    </linearGradient>
    <filter id="shadow" x="-20%" y="-20%" width="140%" height="140%">
      <feDropShadow dx="0" dy="24" stdDeviation="28" flood-color="#000" flood-opacity="0.45"/>
    </filter>
  </defs>
  <rect width="1200" height="720" fill="url(#bg)"/>
  <circle cx="180" cy="110" r="240" fill="#e5242a" opacity="0.16"/>
  <circle cx="1030" cy="160" r="260" fill="#00d5ff" opacity="0.14"/>
  <g opacity="0.14" stroke="#f5efe2" stroke-width="2">
    <path d="M70 620 C220 520 250 430 420 440 S610 580 740 470 930 290 1130 360"/>
    <path d="M110 120 L315 248 L520 160 L750 286 L1010 128"/>
    <path d="M315 248 L420 440 M520 160 L740 470 M750 286 L930 290"/>
  </g>
  <g filter="url(#shadow)">
    <rect x="138" y="118" width="672" height="474" rx="18" fill="#f5efe2"/>
    <rect x="164" y="144" width="620" height="422" rx="10" fill="#ffffff"/>
    <path d="M238 456 C320 358 398 404 462 294 C514 206 594 250 622 332 C662 448 704 418 735 354" fill="none" stroke="#111417" stroke-width="18" stroke-linecap="round" stroke-linejoin="round"/>
    <path d="M262 230 L342 314 L430 216 L550 346 L664 194" fill="none" stroke="#e5242a" stroke-width="12" stroke-linecap="round" stroke-linejoin="round"/>
    <circle cx="674" cy="210" r="24" fill="#ffb83d"/>
  </g>
  <g filter="url(#shadow)">
    <rect x="842" y="154" width="248" height="408" rx="18" fill="#0e1114" stroke="#f5efe2" stroke-opacity="0.18" stroke-width="2"/>
    <text x="872" y="212" fill="#00d5ff" font-family="Arial, Helvetica, sans-serif" font-size="28" font-weight="900">GUESSES</text>
    <rect x="872" y="250" width="188" height="44" rx="8" fill="#1b2025"/>
    <rect x="872" y="312" width="148" height="44" rx="8" fill="#1b2025"/>
    <rect x="872" y="374" width="196" height="44" rx="8" fill="#173b22" stroke="#8fff6f" stroke-width="2"/>
    <text x="892" y="405" fill="#8fff6f" font-family="Arial, Helvetica, sans-serif" font-size="22" font-weight="900">CORRECT</text>
    <rect x="872" y="476" width="150" height="52" rx="26" fill="url(#accent)"/>
  </g>
  <text x="140" y="656" fill="#f5efe2" font-family="Arial, Helvetica, sans-serif" font-size="56" font-weight="900">CONSPIRACY PICTIONARY</text>
</svg>
